<svg width="672" height="454" viewBox="0 0 672 454" fill="none" xmlns="http://www.w3.org/2000/svg">
<path d="M25.2343 224.839C24.6581 224.268 23.8786 223.947 23.0661 223.947C22.2536 223.947 21.4741 224.268 20.8978 224.839L1.3222 244.322C1.03645 244.607 0.809783 244.945 0.655138 245.317C0.500493 245.69 0.420898 246.089 0.420898 246.491C0.420898 246.894 0.500493 247.293 0.655138 247.665C0.809783 248.037 1.03645 248.376 1.3222 248.661C1.60794 248.945 1.94717 249.171 2.32052 249.325C2.69387 249.48 3.09402 249.559 3.49812 249.559C3.90223 249.559 4.30238 249.48 4.67573 249.325C5.04907 249.171 5.3883 248.945 5.67405 248.661L23.0661 231.338L40.4581 248.676C41.0352 249.251 41.8179 249.574 42.634 249.574C43.4502 249.574 44.2329 249.251 44.81 248.676C45.3871 248.101 45.7113 247.32 45.7113 246.507C45.7113 245.693 45.3871 244.913 44.81 244.338L25.2343 224.854V224.839ZM44.5486 126.5C44.1994 127.219 44.1454 128.045 44.3981 128.803C44.6508 129.561 45.1901 130.191 45.9014 130.558C46.6127 130.926 47.4398 131.002 48.2066 130.771C48.9735 130.54 49.6197 130.02 50.0076 129.321L44.5486 126.5ZM251.115 444.678C126.788 444.678 26.1416 347.137 26.1416 227H19.9906C19.9906 350.693 123.559 450.81 251.115 450.81V444.678ZM251.115 9.32196C375.459 9.32196 476.089 106.863 476.089 227H482.24C482.24 103.307 378.688 3.19019 251.115 3.19019V9.32196ZM476.089 227C476.089 347.137 375.459 444.678 251.115 444.678V450.81C378.688 450.81 482.24 350.693 482.24 227H476.089ZM50.023 129.321C86.9907 58.1922 163.14 9.32196 251.115 9.32196V3.19019C160.818 3.19019 82.5773 53.3481 44.5486 126.5L50.0076 129.321H50.023Z" fill="url(#paint0_radial_225_540)"/>
<path d="M418.87 398.276C418.87 381.343 405.1 367.617 388.115 367.617C371.129 367.617 357.359 381.343 357.359 398.276C357.359 415.208 371.129 428.935 388.115 428.935C405.1 428.935 418.87 415.208 418.87 398.276Z" fill="#F19E3C"/>
<mask id="mask0_225_540" style="mask-type:luminance" maskUnits="userSpaceOnUse" x="369" y="379" width="38" height="38">
<path d="M369.661 379.88H406.567V416.671H369.661V379.88Z" fill="white"/>
</mask>
<g mask="url(#mask0_225_540)">
<path d="M405.03 389.078L390.421 403.641L382.732 395.976L371.199 407.473" stroke="white" stroke-width="1.9222" stroke-linecap="round" stroke-linejoin="round"/>
<path d="M395.804 389.078H405.03V398.276" stroke="white" stroke-width="1.9222" stroke-linecap="round" stroke-linejoin="round"/>
</g>
<path d="M429.388 391.086V406.707H426.559V391.086H429.388ZM432.464 391.086H435.939L440.583 402.4H440.767L445.411 391.086H448.887V406.707H446.165V395.977H446.011L441.705 406.661H439.66L435.339 395.961H435.185V406.692H432.464V391.086ZM451.978 406.707V391.086H457.852C459.051 391.086 460.066 391.316 460.881 391.761C461.696 392.221 462.311 392.834 462.727 393.6C463.157 394.382 463.372 395.271 463.372 396.268C463.383 397.192 463.161 398.104 462.727 398.92C462.311 399.702 461.681 400.315 460.866 400.759C460.036 401.219 459.021 401.434 457.806 401.434H453.915V399.104H457.421C458.129 399.104 458.713 398.981 459.159 398.736C459.605 398.491 459.928 398.153 460.143 397.739C460.377 397.285 460.494 396.779 460.482 396.268C460.482 395.701 460.374 395.225 460.143 394.796C459.925 394.37 459.574 394.026 459.144 393.815C458.698 393.57 458.129 393.462 457.406 393.462H454.807V406.707H451.978ZM465.818 406.707V391.086H471.707C472.907 391.086 473.922 391.301 474.737 391.715C475.552 392.129 476.167 392.727 476.582 393.478C477.012 394.214 477.228 395.087 477.228 396.084C477.228 397.08 477.012 397.954 476.582 398.69C476.151 399.426 475.536 399.993 474.706 400.391C473.875 400.79 472.86 400.989 471.661 400.989H467.478V398.644H471.277C471.984 398.644 472.568 398.537 473.014 398.337C473.46 398.153 473.783 397.877 473.998 397.479C474.229 397.111 474.337 396.636 474.337 396.099C474.337 395.532 474.229 395.057 473.998 394.674C473.777 394.264 473.426 393.941 472.999 393.754C472.553 393.554 471.984 393.447 471.261 393.447H468.662V406.707H465.833H465.818ZM473.922 399.625L477.797 406.707H474.629L470.831 399.625H473.906H473.922ZM493.82 398.889C493.82 400.575 493.513 402.016 492.882 403.212C492.308 404.366 491.412 405.33 490.302 405.988C489.192 406.646 487.914 406.97 486.623 406.922C485.335 406.955 484.064 406.624 482.957 405.968C481.849 405.312 480.95 404.356 480.365 403.212C479.712 401.872 479.395 400.394 479.442 398.904C479.393 397.41 479.709 395.926 480.365 394.582C480.947 393.436 481.845 392.479 482.954 391.825C484.062 391.17 485.336 390.845 486.623 390.887C487.911 390.844 489.185 391.17 490.292 391.828C491.399 392.486 492.292 393.447 492.867 394.597C493.513 395.777 493.82 397.203 493.82 398.889ZM490.975 398.889C491.006 397.865 490.817 396.846 490.422 395.9C490.102 395.149 489.567 394.509 488.884 394.06C488.211 393.628 487.424 393.404 486.623 393.416C485.778 393.416 485.024 393.631 484.378 394.045C483.717 394.474 483.21 395.087 482.84 395.9C482.449 396.847 482.261 397.865 482.287 398.889C482.287 400.085 482.471 401.081 482.84 401.894C483.21 402.706 483.717 403.335 484.378 403.749C485.024 404.162 485.778 404.377 486.623 404.377C487.485 404.377 488.238 404.162 488.884 403.764C489.545 403.335 490.053 402.706 490.422 401.894C490.791 401.081 490.975 400.085 490.975 398.904V398.889ZM497.757 391.086L501.832 403.381H501.986L506.061 391.086H509.182L503.662 406.707H500.156L494.65 391.086H497.757ZM511.243 406.707V391.086H521.423V393.462H514.088V397.709H520.9V400.069H514.072V404.331H521.484V406.707H511.243Z" fill="#828282"/>
<path d="M502.709 285.896C502.709 268.963 488.939 255.237 471.953 255.237C454.968 255.237 441.198 268.963 441.198 285.896C441.198 302.828 454.968 316.555 471.953 316.555C488.939 316.555 502.709 302.828 502.709 285.896Z" fill="#329CE9"/>
<mask id="mask1_225_540" style="mask-type:luminance" maskUnits="userSpaceOnUse" x="453" y="267" width="38" height="38">
<path d="M453.484 267.5H490.391V304.291H453.484V267.5Z" fill="white"/>
</mask>
<g mask="url(#mask1_225_540)">
<path d="M464.248 299.692H459.635C458.819 299.692 458.037 299.369 457.46 298.794C456.884 298.219 456.56 297.44 456.56 296.626V285.896C456.56 285.083 456.884 284.303 457.46 283.728C458.037 283.153 458.819 282.83 459.635 282.83H464.248M464.248 299.692V282.83M464.248 299.692H481.61C482.351 299.701 483.071 299.442 483.636 298.963C484.201 298.484 484.574 297.817 484.685 297.086L486.807 283.29C486.874 282.85 486.844 282.402 486.72 281.975C486.596 281.548 486.38 281.153 486.087 280.818C485.795 280.483 485.433 280.215 485.026 280.033C484.619 279.851 484.178 279.759 483.732 279.764H475.028H475.013V273.632C475.013 272.413 474.527 271.243 473.661 270.38C472.796 269.518 471.623 269.033 470.399 269.033L464.248 282.83" stroke="#F5F5F5" stroke-width="1.9222" stroke-linecap="round" stroke-linejoin="round"/>
</g>
<path d="M520.884 283.719C520.65 282.948 520.19 282.264 519.562 281.757C519.248 281.521 518.894 281.344 518.516 281.236C517.928 281.061 517.31 281.011 516.701 281.087C516.092 281.164 515.506 281.366 514.979 281.68C514.303 282.109 513.795 282.723 513.411 283.535C513.015 284.475 512.826 285.49 512.857 286.509C512.857 287.689 513.042 288.686 513.411 289.513C513.78 290.326 514.303 290.954 514.964 291.368C515.625 291.798 516.394 292.012 517.271 292.012C518.07 292.012 518.762 291.859 519.347 291.552C519.931 291.246 520.377 290.816 520.7 290.249C521.007 289.697 521.161 289.023 521.161 288.272L521.807 288.379H517.563V286.156H523.914V288.042C523.914 289.376 523.622 290.525 523.053 291.506C522.499 292.465 521.683 293.247 520.7 293.76C519.7 294.281 518.547 294.542 517.255 294.542C515.946 294.603 514.647 294.282 513.519 293.618C512.391 292.953 511.482 291.974 510.904 290.801C510.305 289.605 509.997 288.195 509.997 286.54C509.997 285.283 510.182 284.164 510.535 283.167C510.904 282.171 511.412 281.328 512.058 280.638C512.704 279.948 513.457 279.411 514.334 279.059C516.015 278.37 517.89 278.316 519.608 278.906C521.034 279.375 522.248 280.33 523.037 281.603C523.422 282.232 523.652 282.937 523.775 283.704H520.884V283.719ZM526.651 294.327V278.722H536.831V281.098H529.496V285.329H536.308V287.705H529.496V291.966H536.892V294.327H526.651ZM539.045 281.098V278.722H551.532V281.098H546.688V294.327H543.889V281.098H539.045ZM559.282 294.327V278.722H569.308V281.098H562.112V285.329H568.616V287.705H562.127V294.327H559.282ZM571.892 294.327V278.722H582.087V281.098H574.737V285.329H581.549V287.705H574.737V291.966H582.133V294.327H571.892ZM584.963 294.327V278.722H595.158V281.098H587.808V285.329H594.635V287.705H587.808V291.966H595.22V294.327H584.978H584.963ZM603.354 294.327H598.049V278.722H603.462C605.015 278.722 606.353 279.028 607.46 279.657C608.598 280.27 609.459 281.174 610.059 282.339C610.659 283.504 610.951 284.884 610.951 286.509C610.951 288.134 610.643 289.529 610.044 290.709C609.465 291.847 608.554 292.783 607.429 293.392C606.173 294.045 604.77 294.367 603.354 294.327ZM600.894 291.874H603.216C604.308 291.874 605.215 291.69 605.953 291.292C606.676 290.893 607.229 290.295 607.599 289.498C607.952 288.701 608.137 287.705 608.137 286.509C608.137 285.313 607.952 284.332 607.599 283.535C607.229 282.753 606.676 282.155 605.969 281.757C605.147 281.338 604.23 281.138 603.308 281.174H600.894V291.89V291.874ZM613.657 294.327V278.722H619.655C620.777 278.722 621.715 278.906 622.469 279.258C623.152 279.557 623.731 280.052 624.131 280.68C624.531 281.308 624.734 282.04 624.714 282.784C624.714 283.397 624.606 283.949 624.36 284.409C624.119 284.842 623.776 285.21 623.361 285.482C622.961 285.773 622.499 285.972 621.977 286.095V286.248C622.567 286.287 623.138 286.473 623.638 286.789C624.138 287.105 624.55 287.541 624.837 288.057C625.175 288.609 625.329 289.284 625.329 290.081C625.329 290.893 625.129 291.614 624.745 292.257C624.32 292.927 623.704 293.456 622.976 293.775C622.176 294.143 621.192 294.327 619.993 294.327H613.657ZM616.487 291.966H619.532C620.562 291.966 621.315 291.767 621.761 291.384C622.223 290.985 622.453 290.464 622.453 289.851C622.459 289.407 622.338 288.971 622.104 288.593C621.87 288.216 621.532 287.913 621.131 287.72C620.657 287.491 620.135 287.38 619.608 287.398H616.487V291.966ZM616.487 285.375H619.301C619.778 285.375 620.224 285.267 620.608 285.099C620.994 284.938 621.323 284.665 621.551 284.314C621.779 283.964 621.895 283.554 621.884 283.136C621.884 282.523 621.669 282.033 621.238 281.649C620.823 281.251 620.193 281.052 619.347 281.052H616.487V285.359V285.375ZM629.804 294.327H626.79L632.295 278.722H635.801L641.322 294.327H638.292L634.109 281.925H633.986L629.804 294.342V294.327ZM629.911 288.21H638.169V290.479H629.911V288.21ZM656.053 283.995H653.178C653.037 283.14 652.589 282.366 651.917 281.818C651.581 281.561 651.201 281.368 650.794 281.251C650.197 281.064 649.567 281.007 648.947 281.083C648.326 281.16 647.729 281.369 647.196 281.695C646.535 282.109 646.027 282.723 645.658 283.535C645.257 284.48 645.063 285.499 645.089 286.524C645.089 287.72 645.289 288.732 645.658 289.544C646.027 290.357 646.55 290.97 647.196 291.384C647.731 291.691 648.323 291.888 648.936 291.961C649.549 292.035 650.17 291.985 650.763 291.813C651.385 291.649 651.944 291.308 652.373 290.832C652.802 290.355 653.082 289.764 653.178 289.13L656.038 289.161C655.836 290.643 655.098 292.001 653.962 292.978C653.393 293.468 652.732 293.852 651.963 294.128C651.194 294.404 650.348 294.542 649.41 294.542C648.121 294.593 646.844 294.269 645.736 293.611C644.628 292.952 643.735 291.987 643.167 290.832C642.552 289.636 642.244 288.21 642.244 286.54C642.244 284.853 642.552 283.412 643.182 282.217C643.754 281.068 644.645 280.107 645.749 279.45C646.854 278.792 648.124 278.465 649.41 278.507C650.287 278.507 651.102 278.63 651.84 278.875C652.609 279.12 653.27 279.488 653.839 279.948C654.439 280.408 654.915 280.99 655.3 281.68C655.684 282.355 655.915 283.121 656.038 283.98L656.053 283.995ZM658.637 294.327V278.722H661.482V285.896H661.666L667.771 278.722H671.246L665.188 285.727L671.292 294.327H667.879L663.219 287.643L661.482 289.682V294.327H658.637Z" fill="#828282"/>
<path d="M498.095 156.684C498.095 139.751 484.326 126.025 467.34 126.025C450.355 126.025 436.585 139.751 436.585 156.684C436.585 173.616 450.355 187.343 467.34 187.343C484.326 187.343 498.095 173.616 498.095 156.684Z" fill="#B86CE6"/>
<path d="M468.862 141.354L453.484 159.75H467.324L465.786 172.013L481.164 153.618H467.324L468.862 141.354Z" stroke="#F5F5F5" stroke-width="1.9222" stroke-linecap="round" stroke-linejoin="round"/>
<path d="M507.798 165.13H504.769L510.289 149.51H513.78L519.316 165.13H516.271L512.088 152.714H511.981L507.798 165.13ZM507.89 158.999H516.148V161.267H507.906V158.999H507.89ZM521.361 165.13V149.51H527.235C528.435 149.51 529.45 149.74 530.265 150.184C531.08 150.644 531.71 151.257 532.11 152.024C532.54 152.806 532.756 153.695 532.756 154.676C532.774 155.604 532.557 156.521 532.125 157.343C531.695 158.125 531.08 158.738 530.249 159.183C529.419 159.627 528.404 159.842 527.204 159.842H523.314V157.527H526.82C527.527 157.527 528.096 157.404 528.542 157.159C529.004 156.914 529.311 156.577 529.542 156.147C529.757 155.718 529.865 155.228 529.865 154.676C529.865 153.848 529.757 153.633 529.542 153.219C529.323 152.794 528.973 152.45 528.542 152.238C528.081 151.993 527.512 151.871 526.805 151.871H524.19V165.13H521.361ZM535.216 165.13V149.51H541.09C542.29 149.51 543.305 149.74 544.12 150.184C544.935 150.644 545.565 151.257 545.965 152.024C546.396 152.806 546.611 153.695 546.611 154.676C546.629 155.604 546.412 156.521 545.98 157.343C545.55 158.125 544.935 158.738 544.104 159.183C543.274 159.627 542.259 159.842 541.06 159.842H537.169V157.527H540.675C541.383 157.527 541.952 157.404 542.397 157.159C542.859 156.914 543.166 156.577 543.397 156.147C543.612 155.718 543.72 155.228 543.72 154.676C543.72 153.848 543.612 153.633 543.397 153.219C543.178 152.794 542.828 152.45 542.397 152.238C541.936 151.993 541.367 151.871 540.66 151.871H538.046V165.13H535.216ZM549.071 165.13V149.51H551.916V162.754H558.805V165.13H549.071ZM558.621 149.51H561.835L565.664 156.408H565.818L569.647 149.51H572.845L567.155 159.305V165.13H564.326V159.305L558.636 149.51H558.621Z" fill="#828282"/>
<path d="M412.718 49.7609C412.718 32.8285 398.949 19.1021 381.963 19.1021C364.978 19.1021 351.208 32.8285 351.208 49.7609C351.208 66.6934 364.978 80.4198 381.963 80.4198C398.949 80.4198 412.718 66.6934 412.718 49.7609Z" fill="#47C563"/>
<mask id="mask2_225_540" style="mask-type:luminance" maskUnits="userSpaceOnUse" x="363" y="31" width="38" height="38">
<path d="M363.511 31.3657H400.417V68.1564H363.511V31.3657Z" fill="white"/>
</mask>
<g mask="url(#mask2_225_540)">
<path d="M381.964 45.1623C381.964 43.536 381.315 41.9764 380.162 40.8265C379.008 39.6765 377.444 39.0305 375.812 39.0305H366.586V62.0247H377.35C378.574 62.0247 379.747 62.5092 380.612 63.3716C381.477 64.2341 381.964 65.4038 381.964 66.6235M381.964 45.1623V66.6235M381.964 45.1623C381.964 43.536 382.612 41.9764 383.765 40.8265C384.919 39.6765 386.483 39.0305 388.115 39.0305H397.341V62.0247H386.577C385.353 62.0247 384.18 62.5092 383.315 63.3716C382.45 64.2341 381.964 65.4038 381.964 66.6235" stroke="#F5F5F5" stroke-width="1.9222" stroke-linecap="round" stroke-linejoin="round"/>
</g>
<path d="M420.407 58.1923V42.5869H423.237V55.8162H430.141V58.1923H420.407ZM432.602 58.1923V42.5869H442.782V44.9476H435.431V49.1939H442.259V51.5546H435.431V55.8162H442.843V58.1923H432.602ZM447.687 58.1923H444.658L450.178 42.5869H453.669L459.205 58.1923H456.16L451.993 45.7754H451.87L447.687 58.1923ZM447.795 52.0605H456.052V54.3446H447.795V52.0758V52.0605ZM461.25 58.1923V42.5869H467.124C468.339 42.5869 469.339 42.7862 470.154 43.2001C470.969 43.6293 471.599 44.2118 471.999 44.963C472.445 45.7141 472.645 46.5726 472.645 47.569C472.645 48.5807 472.43 49.4392 471.999 50.175C471.584 50.9108 470.953 51.478 470.138 51.8766C469.308 52.2751 468.293 52.4744 467.094 52.4744H462.911V50.129H466.709C467.416 50.129 467.985 50.037 468.431 49.8377C468.893 49.6385 469.216 49.3472 469.431 48.9793C469.646 48.5961 469.754 48.1208 469.754 47.569C469.754 47.0171 469.646 46.5419 469.431 46.1587C469.207 45.7553 468.856 45.4373 468.431 45.2542C467.97 45.055 467.401 44.9476 466.694 44.9476H464.08V58.1923H461.25ZM469.339 51.1101L473.229 58.1923H470.061L466.248 51.1101H469.339ZM488.13 42.5869V58.1923H485.608L478.227 47.5537H478.088V58.1923H475.259V42.5869H477.796L485.178 53.2255H485.301V42.5869H488.13Z" fill="#828282"/>
<defs>
<radialGradient id="paint0_radial_225_540" cx="0" cy="0" r="1" gradientUnits="userSpaceOnUse" gradientTransform="translate(302.5 244.5) rotate(-166.018) scale(279.254 271.197)">
<stop stop-color="#0B5E41" stop-opacity="0.06"/>
<stop offset="1" stop-color="#0B5E41"/>
</radialGradient>
</defs>
</svg>
