<svg width="180" height="190" viewBox="0 0 180 190" fill="none" xmlns="http://www.w3.org/2000/svg">
<g clip-path="url(#clip0_27_3026)">
<path d="M176.983 19.01H19.1066C17.4405 19.01 16.0898 20.3606 16.0898 22.0267V219.117C16.0898 220.783 17.4405 222.133 19.1066 222.133H176.983C178.649 222.133 180 220.783 180 219.117V22.0267C180 20.3606 178.649 19.01 176.983 19.01Z" fill="#CED8E0"/>
<path d="M168.938 10.9658H11.0617C9.39556 10.9658 8.04492 12.3164 8.04492 13.9825V210.067C8.04492 211.733 9.39556 213.084 11.0617 213.084H168.938C170.604 213.084 171.955 211.733 171.955 210.067V13.9825C171.955 12.3164 170.604 10.9658 168.938 10.9658Z" fill="#E0E7ED"/>
<path d="M160.893 0.909912H3.01674C1.35064 0.909912 0 2.26053 0 3.9266V200.011C0 201.677 1.35064 203.028 3.01674 203.028H160.893C162.559 203.028 163.91 201.677 163.91 200.011V3.9266C163.91 2.26053 162.559 0.909912 160.893 0.909912Z" fill="white"/>
<path d="M38.3126 142.191V148.929C38.3132 149.445 38.1152 149.942 37.7595 150.317C37.4038 150.691 36.9177 150.914 36.402 150.94H22.9272C22.3938 150.94 21.8822 150.728 21.5051 150.351C21.1279 149.974 20.916 149.462 20.916 148.929V135.454C20.916 134.921 21.1279 134.409 21.5051 134.032C21.8822 133.655 22.3938 133.443 22.9272 133.443H33.4858" stroke="#E0E7ED" stroke-width="2.81563" stroke-linecap="round" stroke-linejoin="round"/>
<mask id="mask0_27_3026" style="mask-type:luminance" maskUnits="userSpaceOnUse" x="18" y="96" width="24" height="24">
<path d="M18.1016 96.4382H41.2299V119.567H18.1016V96.4382Z" fill="white"/>
</mask>
<g mask="url(#mask0_27_3026)">
<path d="M38.3145 108.002V114.74C38.3152 115.256 38.1171 115.753 37.7615 116.128C37.4058 116.502 36.9197 116.725 36.4039 116.751H22.9291C22.3957 116.751 21.8842 116.539 21.507 116.162C21.1299 115.785 20.918 115.273 20.918 114.74V101.265C20.918 100.732 21.1299 100.22 21.507 99.843C21.8842 99.4658 22.3957 99.2539 22.9291 99.2539H33.4877" stroke="#E0E7ED" stroke-width="2.81563" stroke-linecap="round" stroke-linejoin="round"/>
<path d="M27.4551 105.991L30.3713 108.907L40.0248 99.2539" stroke="#28D9AF" stroke-width="2.81563" stroke-linecap="round" stroke-linejoin="round"/>
</g>
<path d="M38.3126 73.8131V80.5503C38.3132 81.0667 38.1152 81.5636 37.7595 81.938C37.4038 82.3124 36.9177 82.5356 36.402 82.5615H22.9272C22.3938 82.5615 21.8822 82.3496 21.5051 81.9724C21.1279 81.5953 20.916 81.0837 20.916 80.5503V67.0758C20.916 66.5424 21.1279 66.0309 21.5051 65.6537C21.8822 65.2766 22.3938 65.0647 22.9272 65.0647H33.4858M38.3126 177.386V184.123C38.3132 184.64 38.1152 185.136 37.7595 185.511C37.4038 185.885 36.9177 186.108 36.402 186.134H22.9272C22.3938 186.134 21.8822 185.922 21.5051 185.545C21.1279 185.168 20.916 184.657 20.916 184.123V170.649C20.916 170.115 21.1279 169.604 21.5051 169.227C21.8822 168.849 22.3938 168.638 22.9272 168.638H33.4858" stroke="#E0E7ED" stroke-width="2.81563" stroke-linecap="round" stroke-linejoin="round"/>
<path d="M144.1 16.9988H22.8264C21.3269 16.9988 20.1113 18.2144 20.1113 19.7139V21.3228C20.1113 22.8223 21.3269 24.0379 22.8264 24.0379H144.1C145.599 24.0379 146.815 22.8223 146.815 21.3228V19.7139C146.815 18.2144 145.599 16.9988 144.1 16.9988Z" fill="#E0E7ED"/>
<path d="M144.1 31.0767H22.8264C21.3269 31.0767 20.1113 32.2922 20.1113 33.7917V35.4007C20.1113 36.9002 21.3269 38.1157 22.8264 38.1157H144.1C145.599 38.1157 146.815 36.9002 146.815 35.4007V33.7917C146.815 32.2922 145.599 31.0767 144.1 31.0767Z" fill="#E0E7ED"/>
<path d="M70.6921 45.1545H22.8264C21.3269 45.1545 20.1113 46.3701 20.1113 47.8696V48.473C20.1113 49.9725 21.3269 51.188 22.8264 51.188H70.6921C72.1916 51.188 73.4072 49.9725 73.4072 48.473V47.8696C73.4072 46.3701 72.1916 45.1545 70.6921 45.1545Z" fill="#E0E7ED"/>
<path d="M143.497 99.4548H53.598C52.3206 99.4548 51.2852 100.49 51.2852 101.768V103.175C51.2852 104.453 52.3206 105.488 53.598 105.488H143.497C144.774 105.488 145.81 104.453 145.81 103.175V101.768C145.81 100.49 144.774 99.4548 143.497 99.4548Z" fill="#E0E7ED"/>
<path d="M143.497 64.2603H53.598C52.3206 64.2603 51.2852 65.2957 51.2852 66.5731V68.9865C51.2852 70.2638 52.3206 71.2993 53.598 71.2993H143.497C144.774 71.2993 145.81 70.2638 145.81 68.9865V66.5731C145.81 65.2957 144.774 64.2603 143.497 64.2603Z" fill="#E0E7ED"/>
<path d="M117.352 111.522H53.598C52.3206 111.522 51.2852 112.557 51.2852 113.835V115.242C51.2852 116.52 52.3206 117.555 53.598 117.555H117.352C118.629 117.555 119.665 116.52 119.665 115.242V113.835C119.665 112.557 118.629 111.522 117.352 111.522Z" fill="#E0E7ED"/>
<path d="M117.352 76.3269H53.598C52.3206 76.3269 51.2852 77.3624 51.2852 78.6397V81.0531C51.2852 82.3305 52.3206 83.366 53.598 83.366H117.352C118.629 83.366 119.665 82.3305 119.665 81.0531V78.6397C119.665 77.3624 118.629 76.3269 117.352 76.3269Z" fill="#E0E7ED"/>
<path d="M143.497 132.638H53.598C52.3206 132.638 51.2852 133.674 51.2852 134.951V137.365C51.2852 138.642 52.3206 139.677 53.598 139.677H143.497C144.774 139.677 145.81 138.642 145.81 137.365V134.951C145.81 133.674 144.774 132.638 143.497 132.638Z" fill="#E0E7ED"/>
<path d="M117.352 144.705H53.598C52.3206 144.705 51.2852 145.741 51.2852 147.018V148.426C51.2852 149.703 52.3206 150.739 53.598 150.739H117.352C118.629 150.739 119.665 149.703 119.665 148.426V147.018C119.665 145.741 118.629 144.705 117.352 144.705Z" fill="#E0E7ED"/>
<path d="M128.011 166.828H54.0002C52.5007 166.828 51.2852 168.043 51.2852 169.543V170.146C51.2852 171.646 52.5007 172.861 54.0002 172.861H128.011C129.511 172.861 130.726 171.646 130.726 170.146V169.543C130.726 168.043 129.511 166.828 128.011 166.828Z" fill="#E0E7ED"/>
<path d="M128.011 180.905H54.0002C52.5007 180.905 51.2852 182.121 51.2852 183.62V184.224C51.2852 185.723 52.5007 186.939 54.0002 186.939H128.011C129.511 186.939 130.726 185.723 130.726 184.224V183.62C130.726 182.121 129.511 180.905 128.011 180.905Z" fill="#E0E7ED"/>
</g>
<defs>
<clipPath id="clip0_27_3026">
<rect width="180" height="189.09" fill="white" transform="translate(0 0.909912)"/>
</clipPath>
</defs>
</svg>
